<svg aria-hidden="true" style="position: absolute; width: 0; height: 0; overflow: hidden;" version="1.1" xmlns="http://www.w3.org/2000/svg" xmlns:xlink="http://www.w3.org/1999/xlink">
<defs>
<symbol id="icon-firstpagevector" viewBox="0 0 16 32">
<path fill="#ff6b08" style="fill: var(--color1, #ff6b08)" d="M15.664 15.12l-13.704-14.76c-0.2-0.223-0.489-0.362-0.81-0.362-0.323 0-0.614 0.141-0.813 0.365l-0.001 0.001c-0.209 0.232-0.337 0.54-0.337 0.878s0.128 0.647 0.338 0.879l-0.001-0.001 12.888 13.88-12.888 13.88c-0.209 0.232-0.337 0.54-0.337 0.878s0.128 0.646 0.338 0.879l-0.001-0.001c0.224 0.24 0.52 0.364 0.812 0.364 0.296 0 0.588-0.12 0.812-0.36l13.704-14.76c0.208-0.229 0.336-0.534 0.336-0.869 0-0.004-0-0.008-0-0.011v0.001c0-0.003 0-0.007 0-0.011 0-0.335-0.128-0.641-0.337-0.87l0.001 0.001z"></path>
</symbol>
<symbol id="icon-google-icon" viewBox="0 0 32 32">
<path d="M0 0h32v32h-32z"></path>
</symbol>
<symbol id="icon-marks" viewBox="0 0 43 32">
<path fill="#ff6b08" style="fill: var(--color1, #ff6b08)" d="M37.293 0.856l0.998 1.555c-6.884 4.518-10.327 9.033-10.327 13.549 0 2.296 0.998 3.627 2.999 3.998l4.664-4.331c1.481 0.518 2.814 1.481 3.998 2.888 1.259 1.333 1.888 3.072 1.888 5.22 0 2.146-0.851 3.998-2.554 5.553-1.704 1.481-3.96 2.221-6.776 2.221-2.739 0-5.033-0.926-6.884-2.776-1.777-1.926-2.665-4.553-2.665-7.885 0-7.256 4.887-13.92 14.66-19.991zM16.414 0.856l0.998 1.555c-6.884 4.518-10.327 9.033-10.327 13.549 0 2.296 0.998 3.627 2.999 3.998l4.664-4.331c1.481 0.518 2.814 1.481 3.998 2.888 1.257 1.333 1.888 3.072 1.888 5.22 0 2.146-0.853 3.998-2.554 5.553-1.704 1.481-3.96 2.221-6.776 2.221-2.737 0-5.033-0.926-6.884-2.776-1.777-1.926-2.665-4.553-2.665-7.885 0-7.256 4.887-13.92 14.66-19.991z"></path>
</symbol>
</defs>
</svg>
