<svg aria-hidden="true" style="position: absolute; width: 0; height: 0; overflow: hidden;" version="1.1" xmlns="http://www.w3.org/2000/svg" xmlns:xlink="http://www.w3.org/1999/xlink">
<defs>
<symbol id="icon-firstpagevector" viewBox="0 0 16 32">
<path fill="#ff6b08" style="fill: var(--color1, #ff6b08)" d="M15.662 15.122l-13.703-14.76c-0.449-0.483-1.176-0.482-1.624 0.003s-0.447 1.27 0.002 1.754l12.887 13.881-12.888 13.881c-0.449 0.484-0.45 1.269-0.002 1.754 0.225 0.243 0.519 0.365 0.813 0.365s0.587-0.121 0.811-0.362l13.703-14.76c0.216-0.232 0.338-0.549 0.338-0.878s-0.122-0.645-0.338-0.878z"></path>
</symbol>
<symbol id="icon-flag" viewBox="0 0 28 32">
<path d="M13.854 3.765l0.753 3.765h9.864v11.294h-6.325l-0.753-3.765h-13.628v-11.294h10.089zM16.941 0h-16.941v32h3.765v-13.176h10.541l0.753 3.765h13.176v-18.824h-10.541l-0.753-3.765z"></path>
</symbol>
<symbol id="icon-libraryicon" viewBox="0 0 41 32">
<path d="M37.647 0.941c-2.089-0.659-4.386-0.941-6.588-0.941-3.671 0-7.624 0.753-10.353 2.824-2.729-2.071-6.682-2.824-10.353-2.824s-7.624 0.753-10.353 2.824v27.576c0 0.471 0.471 0.941 0.941 0.941 0.188 0 0.282-0.094 0.471-0.094 2.541-1.224 6.212-2.071 8.941-2.071 3.671 0 7.624 0.753 10.353 2.824 2.541-1.6 7.153-2.824 10.353-2.824 3.106 0 6.306 0.565 8.941 1.976 0.188 0.094 0.282 0.094 0.471 0.094 0.471 0 0.941-0.471 0.941-0.941v-27.482c-1.129-0.847-2.353-1.412-3.765-1.882zM37.647 26.353c-2.071-0.659-4.329-0.941-6.588-0.941-3.2 0-7.812 1.224-10.353 2.824v-21.647c2.541-1.6 7.153-2.824 10.353-2.824 2.259 0 4.518 0.282 6.588 0.941v21.647z"></path>
<path d="M31.059 11.294c1.656 0 3.256 0.169 4.706 0.489v-2.861c-1.487-0.282-3.087-0.452-4.706-0.452-3.2 0-6.099 0.546-8.471 1.562v3.125c2.127-1.205 5.082-1.864 8.471-1.864z"></path>
<path d="M22.588 15.040v3.125c2.127-1.205 5.082-1.864 8.471-1.864 1.656 0 3.256 0.169 4.706 0.489v-2.861c-1.487-0.282-3.087-0.452-4.706-0.452-3.2 0-6.099 0.565-8.471 1.562z"></path>
<path d="M31.059 18.504c-3.2 0-6.099 0.546-8.471 1.562v3.125c2.127-1.205 5.082-1.864 8.471-1.864 1.656 0 3.256 0.169 4.706 0.489v-2.861c-1.487-0.301-3.087-0.452-4.706-0.452z"></path>
</symbol>
<symbol id="icon-arrow" viewBox="0 0 27 32">
<path d="M22.907 22.883c-0.063-0.305-0.311-0.447-0.493-0.638-1.316-1.39-2.653-2.768-3.972-4.159-0.562-0.59-0.611-1.221-0.168-1.669s1.062-0.409 1.609 0.162c2.108 2.186 4.21 4.378 6.306 6.576 0.644 0.676 0.636 1.149-0.013 1.831-2.078 2.181-4.162 4.355-6.251 6.524-0.576 0.598-1.141 0.644-1.609 0.171s-0.398-1.085 0.158-1.671c1.303-1.373 2.618-2.734 3.922-4.104 0.183-0.192 0.424-0.34 0.499-0.644-0.206-0.211-0.461-0.111-0.687-0.111-6.87-0.007-13.743-0.011-20.619-0.011-1.303 0-1.579-0.296-1.579-1.654 0-7.27 0-14.543 0-21.817-0.016-0.254-0.009-0.51 0.022-0.763 0.111-0.563 0.453-0.915 1.015-0.905s0.893 0.365 0.997 0.929c0.025 0.227 0.031 0.457 0.016 0.685 0 6.866 0.010 13.731-0.012 20.589 0 0.648 0.177 0.799 0.774 0.796 6.456-0.021 12.912-0.012 19.368-0.017 0.249 0.012 0.505 0.101 0.718-0.101z"></path>
</symbol>
<symbol id="icon-back" viewBox="0 0 24 12">
<path d="M0.274948 6.68502L0.275791 6.68594L5.17442 11.7182C5.54141 12.0952 6.13499 12.0938 6.50028 11.7149C6.86553 11.3361 6.86413 10.7234 6.49714 10.3463L3.2082 6.96774L23.0625 6.96774C23.5803 6.96774 24 6.53448 24 6C24 5.46552 23.5803 5.03226 23.0625 5.03226L3.20825 5.03226L6.49709 1.65368C6.86408 1.27664 6.86548 0.663918 6.50023 0.285095C6.13494 -0.0938247 5.54131 -0.0951309 5.17437 0.281805L0.275745 5.31407L0.2749 5.31498C-0.0922723 5.69328 -0.0910996 6.30799 0.274948 6.68502Z" fill="#FF6B08"/>
</symbol>
<symbol id="icon-vector" viewBox="0 0 50 45">
<path d="M12.696 31.478h14.087c1.299 0 2.41-0.783 2.88-1.91l4.727-11.035c0.141-0.36 0.219-0.736 0.219-1.143v-3.13c0-1.722-1.409-3.13-3.13-3.13h-9.877l1.487-7.153 0.047-0.501c0-0.642-0.266-1.237-0.689-1.659l-1.659-1.643-10.315 10.315c-0.563 0.563-0.908 1.346-0.908 2.207v15.652c0 1.722 1.409 3.13 3.13 3.13zM12.696 12.696l6.793-6.793-2.097 8.358h14.087v3.13l-4.696 10.957h-14.087v-15.652zM0.174 12.696h6.261v18.783h-6.261v-18.783z"></path>
</symbol>
</defs>
</svg>


